<?xml version="1.0"?>
<svg xmlns="http://www.w3.org/2000/svg" height="512px" viewBox="0 0 448 448" width="512px" class=""><g><path d="m176 272h96c4.417969 0 8 3.582031 8 8v160c0 4.417969-3.582031 8-8 8h-96c-4.417969 0-8-3.582031-8-8v-160c0-4.417969 3.582031-8 8-8zm0 0" data-original="#000000" class="active-path" data-old_color="#5c7893" fill="#5c7893"/><path d="m344 192h96c4.417969 0 8 3.582031 8 8v240c0 4.417969-3.582031 8-8 8h-96c-4.417969 0-8-3.582031-8-8v-240c0-4.417969 3.582031-8 8-8zm0 0" data-original="#000000" class="active-path" data-old_color="#5c7893" fill="#5c7893"/><path d="m8 232h96c4.417969 0 8 3.582031 8 8v200c0 4.417969-3.582031 8-8 8h-96c-4.417969 0-8-3.582031-8-8v-200c0-4.417969 3.582031-8 8-8zm0 0" data-original="#000000" class="active-path" data-old_color="#5c7893" fill="#5c7893"/><path d="m184 32c0 13.253906-10.746094 24-24 24s-24-10.746094-24-24 10.746094-24 24-24 24 10.746094 24 24zm0 0" data-original="#000000" class="active-path" data-old_color="#5c7893" fill="#5c7893"/><path d="m41.792969 132.234375 89.464843-84.128906 10.960938 11.65625-89.464844 84.125zm0 0" data-original="#000000" class="active-path" data-old_color="#5c7893" fill="#5c7893"/><path d="m328.984375 107.703125 66.714844-66.71875 11.316406 11.316406-66.71875 66.714844zm0 0" data-original="#000000" class="active-path" data-old_color="#5c7893" fill="#5c7893"/><path d="m181.890625 56.679688 9.035156-13.207032 99.195313 67.855469-9.03125 13.207031zm0 0" data-original="#000000" class="active-path" data-old_color="#5c7893" fill="#5c7893"/><path d="m336 136c0 13.253906-10.746094 24-24 24s-24-10.746094-24-24 10.746094-24 24-24 24 10.746094 24 24zm0 0" data-original="#000000" class="active-path" data-old_color="#5c7893" fill="#5c7893"/><path d="m448 24c0 13.253906-10.746094 24-24 24s-24-10.746094-24-24 10.746094-24 24-24 24 10.746094 24 24zm0 0" data-original="#000000" class="active-path" data-old_color="#5c7893" fill="#5c7893"/><path d="m48 160c0 13.253906-10.746094 24-24 24s-24-10.746094-24-24 10.746094-24 24-24 24 10.746094 24 24zm0 0" data-original="#000000" class="active-path" data-old_color="#5c7893" fill="#5c7893"/></g> </svg>
